<svg width="251" height="237" viewBox="0 0 251 237" fill="none" xmlns="http://www.w3.org/2000/svg">
<path d="M115.042 50.165V19.75C62.75 24.6875 20.9166 67.2487 20.9166 118.5C20.9166 169.751 62.75 212.312 115.042 217.25V186.835C83.6666 182.095 52.2916 153.26 52.2916 118.5C52.2916 83.74 83.6666 54.905 115.042 50.165ZM198.395 108.625H230.083C225.168 59.25 188.25 24.3913 135.958 19.75V50.165C167.333 54.4113 193.897 79 198.395 108.625ZM135.958 186.835V217.25C188.25 212.609 225.168 177.75 230.083 128.375H198.395C193.897 158 167.333 182.589 135.958 186.835Z" fill="white"/>
</svg>
