<svg width="83" height="91" viewBox="0 0 83 91" fill="none" xmlns="http://www.w3.org/2000/svg">
<path d="M51.875 70.1458C43.1946 70.1458 35.69 64.7617 31.955 56.875H51.875V49.2917H29.6725C29.4996 48.0404 29.3958 46.7892 29.3958 45.5C29.3958 44.2108 29.4996 42.9596 29.6725 41.7083H51.875V34.125H31.955C35.69 26.2383 43.2292 20.8542 51.875 20.8542C57.4429 20.8542 62.5612 23.0913 66.5037 26.8071L72.625 20.0958C67.1262 14.6738 59.8292 11.375 51.875 11.375C38.3183 11.375 26.8367 20.8921 22.5483 34.125H10.375V41.7083H20.9575C20.8192 42.9596 20.75 44.2108 20.75 45.5C20.75 46.7892 20.8192 48.0404 20.9575 49.2917H10.375V56.875H22.5483C26.8367 70.1079 38.3183 79.625 51.875 79.625C59.8638 79.625 67.1262 76.3263 72.625 70.9042L66.4692 64.1929C62.5612 67.9088 57.4775 70.1458 51.875 70.1458Z" fill="white"/>
</svg>
